<?xml version="1.0" standalone="no"?><!DOCTYPE svg PUBLIC "-//W3C//DTD SVG 1.1//EN" "http://www.w3.org/Graphics/SVG/1.1/DTD/svg11.dtd"><svg t="1672212636863" class="icon" viewBox="0 0 1024 1024" version="1.1" xmlns="http://www.w3.org/2000/svg" p-id="2157" xmlns:xlink="http://www.w3.org/1999/xlink" width="200" height="200"><path d="M615.03 53c47.8 0 94.26 9.44 138.07 28.05 42.37 18 80.48 43.76 113.29 76.56 32.8 32.8 58.56 70.92 76.56 113.29C961.56 314.71 971 361.16 971 408.97v206.06c0 47.8-9.44 94.26-28.05 138.07-18 42.37-43.76 80.48-76.56 113.29-32.8 32.8-70.92 58.56-113.29 76.56C709.29 961.56 662.84 971 615.03 971H408.97c-47.8 0-94.26-9.44-138.07-28.05-42.37-18-80.48-43.76-113.29-76.56-32.8-32.8-58.56-70.92-76.56-113.29C62.44 709.29 53 662.84 53 615.03V408.97c0-47.8 9.44-94.26 28.05-138.07 18-42.37 43.76-80.48 76.56-113.29 32.8-32.8 70.92-58.56 113.29-76.56C314.71 62.44 361.16 53 408.97 53h206.06m0-53H408.97C184.04 0 0 184.04 0 408.97v206.06C0 839.96 184.04 1024 408.97 1024h206.06C839.96 1024 1024 839.96 1024 615.03V408.97C1024 184.04 839.96 0 615.03 0z" p-id="2158" fill="#1296db"></path><path d="M774.54 510.77v-44.55c0-144.79-117.74-262.54-262.54-262.54-144.79 0-262.54 117.74-262.54 262.54v44.55c-47.73 14.32-79.56 57.28-79.56 106.61v79.56c0 62.05 49.33 111.38 111.38 111.38S392.66 759 392.66 696.94v-79.56c0-49.33-31.82-92.29-79.56-106.61v-44.55c0-109.79 89.1-198.89 198.89-198.89s198.89 89.1 198.89 198.89v44.55c-47.73 14.32-79.56 57.28-79.56 106.61v79.56c0 62.05 49.33 111.38 111.38 111.38S854.08 759 854.08 696.94v-79.56c0.01-49.32-31.8-92.29-79.54-106.61zM329.02 617.38v79.56c0 27.05-20.69 47.73-47.73 47.73-27.05 0-47.74-20.68-47.74-47.73v-79.56c0-27.05 20.69-47.74 47.74-47.74 27.04 0 47.73 20.69 47.73 47.74z m461.43 79.56c0 27.05-20.68 47.73-47.73 47.73s-47.74-20.68-47.74-47.73v-79.56c0-27.05 20.69-47.74 47.74-47.74s47.73 20.69 47.73 47.74v79.56z" p-id="2159" fill="#1296db"></path><path d="M330 756.69H226c-6.6 0-12-5.4-12-12v-169c0-6.6 5.4-12 12-12h104c6.6 0 12 5.4 12 12v169c0 6.6-5.4 12-12 12zM804 756.69H689c-6.6 0-12-5.4-12-12v-175c0-6.6 5.4-12 12-12h115c6.6 0 12 5.4 12 12v175c0 6.6-5.4 12-12 12z" p-id="2160" fill="#1296db"></path></svg>